<?xml version="1.0" encoding="UTF-8"?>
<!DOCTYPE svg PUBLIC "-//W3C//DTD SVG 1.1//EN" "http://www.w3.org/Graphics/SVG/1.1/DTD/svg11.dtd">
<svg version="1.1" xmlns="http://www.w3.org/2000/svg" xmlns:xlink="http://www.w3.org/1999/xlink" x="0" y="0" width="514" height="514" viewBox="0, 0, 514, 514">
  <g id="Layer_2" transform="translate(68.5, 68.5)">
    <path d="M188.5,1 C292.053,1 376,84.947 376,188.5 C376,292.053 292.053,376 188.5,376 C84.947,376 1,292.053 1,188.5 C1,84.947 84.947,1 188.5,1 z M180.925,99.75 L179.712,353.946 L204.265,353.946 L204.265,124.333 L338.356,124.333 L349.205,99.75 L180.925,99.75 z M262.123,200.119 C245.454,200.119 231.942,213.632 231.942,230.3 C231.942,246.969 245.454,260.482 262.123,260.482 C278.792,260.482 292.304,246.969 292.305,230.3 C292.304,213.632 278.792,200.119 262.123,200.119 z M154.096,149.941 L28.004,149.941 L38.633,174.693 L154.096,174.693 L154.096,149.941 z M154.373,99.75 L28.004,99.719 L38.633,124.471 L154.096,124.471 L154.373,99.75 z" fill="#000000"/>
    <path d="M188.5,1 C292.053,1 376,84.947 376,188.5 C376,292.053 292.053,376 188.5,376 C84.947,376 1,292.053 1,188.5 C1,84.947 84.947,1 188.5,1 z M180.925,99.75 L179.712,353.946 L204.265,353.946 L204.265,124.333 L338.356,124.333 L349.205,99.75 L180.925,99.75 z M262.123,200.119 C245.454,200.119 231.942,213.632 231.942,230.3 C231.942,246.969 245.454,260.482 262.123,260.482 C278.792,260.482 292.304,246.969 292.305,230.3 C292.304,213.632 278.792,200.119 262.123,200.119 z M154.096,149.941 L28.004,149.941 L38.633,174.693 L154.096,174.693 L154.096,149.941 z M154.373,99.75 L28.004,99.719 L38.633,124.471 L154.096,124.471 L154.373,99.75 z" fill-opacity="0" stroke="#7F7F7F" stroke-width="0.75"/>
    <path d="M188.5,388.5 C78.043,388.5 -11.5,298.957 -11.5,188.5 C-11.5,78.043 78.043,-11.5 188.5,-11.5 C298.957,-11.5 388.5,78.043 388.5,188.5 C388.5,298.957 298.957,388.5 188.5,388.5 z" fill-opacity="0" stroke="#000000" stroke-width="29"/>
  </g>
</svg>
